<svg width="185" height="102" viewBox="0 0 185 102" fill="none" xmlns="http://www.w3.org/2000/svg">
<path d="M65.5846 21.3989L90.2313 34.8425C91.4252 35.4938 92.8682 35.4938 94.0621 34.8425L118.709 21.3989C121.488 19.8828 121.488 15.8918 118.709 14.3757L94.0621 0.932081C92.8682 0.280857 91.4252 0.28086 90.2313 0.932083L65.5846 14.3757C62.8051 15.8918 62.8051 19.8828 65.5846 21.3989Z" fill="#379EE8"/>
<path d="M71.5086 19.1442L91.1232 29.3945C91.7128 29.7026 92.417 29.6974 93.002 29.3806L111.87 19.1618C113.273 18.4022 113.265 16.3866 111.857 15.6374L92.5859 5.3869C91.9987 5.07456 91.2947 5.07456 90.7075 5.3869L71.4957 15.6059C70.0755 16.3613 70.0829 18.3992 71.5086 19.1442Z" fill="white"/>
<path d="M120.647 43.8873L93.6467 58.8873V65.8873L118.539 52.5191C119.837 51.8221 120.647 50.4683 120.647 48.9951V43.8873Z" fill="#1C4973"/>
<path d="M120.647 33.8873L93.6467 48.8873V55.8873L118.539 42.5191C119.837 41.8221 120.647 40.4683 120.647 38.9951V33.8873Z" fill="#1C4973"/>
<path d="M120.647 23.8873L93.6467 38.8873V45.8873L118.539 32.5191C119.837 31.8221 120.647 30.4683 120.647 28.9951V23.8873Z" fill="#1C4973"/>
<path d="M63.6467 43.8873L90.6467 58.8873V65.8873L65.7542 52.5191C64.4564 51.8221 63.6467 50.4683 63.6467 48.9951V43.8873Z" fill="#379EE8"/>
<path d="M63.6467 33.8873L90.6467 48.8873V55.8873L65.7542 42.5191C64.4564 41.8221 63.6467 40.4683 63.6467 38.9951V33.8873Z" fill="#379EE8"/>
<path d="M63.6467 23.8873L90.6467 38.8873V45.8873L65.7542 32.5191C64.4564 31.8221 63.6467 30.4683 63.6467 28.9951V23.8873Z" fill="#379EE8"/>
<path d="M38.8267 96.8873V85.2873H34.8267V82.8873H45.5467V85.2873H41.4267V96.8873H38.8267ZM46.1605 96.8873L51.6205 82.8873H54.0605L59.4805 96.8873H56.7805L53.7805 88.9273C53.7138 88.7673 53.6205 88.514 53.5005 88.1673C53.3938 87.8206 53.2738 87.4473 53.1405 87.0473C53.0071 86.634 52.8871 86.254 52.7805 85.9073C52.6738 85.5473 52.5938 85.2873 52.5405 85.1273L53.0405 85.1073C52.9605 85.374 52.8671 85.674 52.7605 86.0073C52.6538 86.3406 52.5405 86.6873 52.4205 87.0473C52.3005 87.4073 52.1805 87.754 52.0605 88.0873C51.9538 88.4206 51.8538 88.7206 51.7605 88.9873L48.7605 96.8873H46.1605ZM48.6405 93.6873L49.5405 91.4273H55.9205L56.8805 93.6873H48.6405ZM66.7253 97.0873C65.912 97.0873 65.1653 96.9873 64.4853 96.7873C63.8053 96.574 63.192 96.2606 62.6453 95.8473C62.0987 95.434 61.612 94.934 61.1853 94.3473L62.8853 92.4273C63.5387 93.334 64.1787 93.9606 64.8053 94.3073C65.432 94.654 66.1387 94.8273 66.9253 94.8273C67.3787 94.8273 67.792 94.7606 68.1653 94.6273C68.5387 94.4806 68.832 94.2873 69.0453 94.0473C69.2587 93.794 69.3653 93.5073 69.3653 93.1873C69.3653 92.9606 69.3187 92.754 69.2253 92.5673C69.1453 92.3673 69.0187 92.194 68.8453 92.0473C68.672 91.8873 68.4587 91.7406 68.2053 91.6073C67.952 91.474 67.6653 91.3606 67.3453 91.2673C67.0253 91.174 66.672 91.0873 66.2853 91.0073C65.552 90.8606 64.912 90.6673 64.3653 90.4273C63.8187 90.174 63.3587 89.8673 62.9853 89.5073C62.612 89.134 62.3387 88.7206 62.1653 88.2673C61.992 87.8006 61.9053 87.274 61.9053 86.6873C61.9053 86.1006 62.032 85.5606 62.2853 85.0673C62.552 84.574 62.912 84.1473 63.3653 83.7873C63.8187 83.4273 64.3453 83.1473 64.9453 82.9473C65.5453 82.7473 66.192 82.6473 66.8853 82.6473C67.672 82.6473 68.372 82.7406 68.9853 82.9273C69.612 83.114 70.1587 83.394 70.6253 83.7673C71.1053 84.1273 71.4987 84.5673 71.8053 85.0873L70.0853 86.7873C69.8187 86.374 69.5187 86.034 69.1853 85.7673C68.852 85.4873 68.492 85.2806 68.1053 85.1473C67.7187 85.0006 67.312 84.9273 66.8853 84.9273C66.4053 84.9273 65.9853 84.994 65.6253 85.1273C65.2787 85.2606 65.0053 85.454 64.8053 85.7073C64.6053 85.9473 64.5053 86.2406 64.5053 86.5873C64.5053 86.854 64.5653 87.094 64.6853 87.3073C64.8053 87.5073 64.972 87.6873 65.1853 87.8473C65.412 88.0073 65.6987 88.1473 66.0453 88.2673C66.392 88.3873 66.7853 88.494 67.2253 88.5873C67.9587 88.734 68.6187 88.934 69.2053 89.1873C69.792 89.4273 70.292 89.7206 70.7053 90.0673C71.1187 90.4006 71.432 90.7873 71.6453 91.2273C71.8587 91.654 71.9653 92.134 71.9653 92.6673C71.9653 93.5873 71.7453 94.3806 71.3053 95.0473C70.8787 95.7006 70.272 96.2073 69.4853 96.5673C68.6987 96.914 67.7787 97.0873 66.7253 97.0873ZM77.4844 92.7073L77.0844 90.1273L84.2844 82.8873H87.5444L77.4844 92.7073ZM75.4244 96.8873V82.8873H78.0244V96.8873H75.4244ZM84.6044 96.8873L79.3044 89.8273L81.1444 88.2473L87.7644 96.8873H84.6044Z" fill="#379EE8"/>
<path d="M90.7119 96.8873V82.8873H93.3119V96.8873H90.7119ZM91.9119 91.1473V88.7873H99.1319V91.1473H91.9119ZM91.9119 85.2873V82.8873H99.9919V85.2873H91.9119ZM103.48 96.8873V82.8873H106.08V94.4873H112.54V96.8873H103.48ZM121.76 97.0873C120.76 97.0873 119.834 96.9073 118.98 96.5473C118.127 96.1873 117.38 95.6873 116.74 95.0473C116.114 94.394 115.627 93.6273 115.28 92.7473C114.934 91.8673 114.76 90.9073 114.76 89.8673C114.76 88.8273 114.934 87.8673 115.28 86.9873C115.627 86.1073 116.114 85.3473 116.74 84.7073C117.38 84.054 118.127 83.5473 118.98 83.1873C119.834 82.8273 120.76 82.6473 121.76 82.6473C122.774 82.6473 123.707 82.8273 124.56 83.1873C125.414 83.5473 126.154 84.054 126.78 84.7073C127.407 85.3606 127.894 86.1273 128.24 87.0073C128.587 87.874 128.76 88.8273 128.76 89.8673C128.76 90.894 128.587 91.8473 128.24 92.7273C127.894 93.6073 127.407 94.374 126.78 95.0273C126.154 95.6806 125.414 96.1873 124.56 96.5473C123.707 96.9073 122.774 97.0873 121.76 97.0873ZM121.76 94.6073C122.4 94.6073 122.98 94.494 123.5 94.2673C124.034 94.0273 124.494 93.694 124.88 93.2673C125.267 92.8273 125.567 92.3206 125.78 91.7473C126.007 91.174 126.12 90.5473 126.12 89.8673C126.12 89.1873 126.007 88.5606 125.78 87.9873C125.567 87.414 125.267 86.914 124.88 86.4873C124.494 86.0473 124.034 85.714 123.5 85.4873C122.98 85.2473 122.4 85.1273 121.76 85.1273C121.134 85.1273 120.554 85.2473 120.02 85.4873C119.487 85.714 119.027 86.0406 118.64 86.4673C118.254 86.894 117.954 87.394 117.74 87.9673C117.527 88.5406 117.42 89.174 117.42 89.8673C117.42 90.5473 117.527 91.1806 117.74 91.7673C117.954 92.3406 118.254 92.8406 118.64 93.2673C119.027 93.694 119.487 94.0273 120.02 94.2673C120.554 94.494 121.134 94.6073 121.76 94.6073ZM134.902 96.8873L130.542 82.8873H133.262L135.742 91.1473C135.822 91.4006 135.896 91.6806 135.962 91.9873C136.029 92.294 136.089 92.6006 136.142 92.9073C136.196 93.2006 136.242 93.474 136.282 93.7273C136.322 93.9806 136.362 94.194 136.402 94.3673L135.862 94.3473C136.022 93.7206 136.149 93.214 136.242 92.8273C136.336 92.4406 136.416 92.1206 136.482 91.8673C136.562 91.6006 136.642 91.354 136.722 91.1273L139.082 85.0873H141.302L143.602 91.1273C143.736 91.5006 143.856 91.8606 143.962 92.2073C144.069 92.5406 144.156 92.874 144.222 93.2073C144.302 93.5273 144.376 93.8606 144.442 94.2073L143.962 94.3073C144.016 93.9873 144.056 93.7273 144.082 93.5273C144.109 93.3273 144.136 93.1473 144.162 92.9873C144.189 92.8273 144.216 92.674 144.242 92.5273C144.269 92.3673 144.309 92.1806 144.362 91.9673C144.429 91.7406 144.509 91.454 144.602 91.1073L147.062 82.8873H149.762L145.382 96.8873H143.502L139.942 88.3673L140.182 88.4473L136.802 96.8873H134.902Z" fill="#1C4973"/>
</svg>
