<svg width="58" height="66" viewBox="0 0 58 66" fill="none" xmlns="http://www.w3.org/2000/svg">
<path d="M2.58459 21.3989L27.2313 34.8425C28.4252 35.4938 29.8682 35.4938 31.0621 34.8425L55.7088 21.3989C58.4882 19.8828 58.4882 15.8918 55.7088 14.3757L31.0621 0.932081C29.8682 0.280857 28.4252 0.28086 27.2313 0.932083L2.58459 14.3757C-0.194867 15.8918 -0.194861 19.8828 2.58459 21.3989Z" fill="#379EE8"/>
<path d="M8.50864 19.1442L28.1232 29.3945C28.7128 29.7026 29.417 29.6974 30.002 29.3806L48.8702 19.1618C50.2729 18.4022 50.2653 16.3866 48.8569 15.6374L29.5859 5.3869C28.9987 5.07456 28.2947 5.07456 27.7075 5.3869L8.49572 15.6059C7.0755 16.3613 7.08294 18.3992 8.50864 19.1442Z" fill="white"/>
<path d="M57.6467 43.8873L30.6467 58.8873V65.8873L55.5392 52.5191C56.837 51.8221 57.6467 50.4683 57.6467 48.9951V43.8873Z" fill="#1C4973"/>
<path d="M57.6467 33.8873L30.6467 48.8873V55.8873L55.5392 42.5191C56.837 41.8221 57.6467 40.4683 57.6467 38.9951V33.8873Z" fill="#1C4973"/>
<path d="M57.6467 23.8873L30.6467 38.8873V45.8873L55.5392 32.5191C56.837 31.8221 57.6467 30.4683 57.6467 28.9951V23.8873Z" fill="#1C4973"/>
<path d="M0.646688 43.8873L27.6467 58.8873V65.8873L2.75418 52.5191C1.45637 51.8221 0.646688 50.4683 0.646688 48.9951V43.8873Z" fill="#379EE8"/>
<path d="M0.646688 33.8873L27.6467 48.8873V55.8873L2.75418 42.5191C1.45637 41.8221 0.646688 40.4683 0.646688 38.9951V33.8873Z" fill="#379EE8"/>
<path d="M0.646688 23.8873L27.6467 38.8873V45.8873L2.75418 32.5191C1.45637 31.8221 0.646688 30.4683 0.646688 28.9951V23.8873Z" fill="#379EE8"/>
</svg>
