<svg width="185" height="66" viewBox="0 0 185 66" fill="none" xmlns="http://www.w3.org/2000/svg">
<path d="M2.08459 20.9552L26.7313 34.3989C27.9252 35.0501 29.3682 35.0501 30.5621 34.3989L55.2088 20.9552C57.9882 19.4392 57.9882 15.4481 55.2088 13.9321L30.5621 0.488416C29.3682 -0.162807 27.9252 -0.162805 26.7313 0.488419L2.08459 13.9321C-0.694867 15.4481 -0.694861 19.4392 2.08459 20.9552Z" fill="#379EE8"/>
<path d="M8.00864 18.7005L27.6232 28.9508C28.2128 29.2589 28.917 29.2537 29.502 28.9369L48.3702 18.7182C49.7729 17.9585 49.7653 15.9429 48.3569 15.1938L29.0859 4.94324C28.4987 4.6309 27.7947 4.6309 27.2075 4.94324L7.99572 15.1622C6.5755 15.9177 6.58294 17.9555 8.00864 18.7005Z" fill="white"/>
<path d="M57.1467 43.4436L30.1467 58.4436V65.4436L55.0392 52.0755C56.337 51.3785 57.1467 50.0246 57.1467 48.5515V43.4436Z" fill="#1C4973"/>
<path d="M57.1467 33.4436L30.1467 48.4436V55.4436L55.0392 42.0755C56.337 41.3785 57.1467 40.0246 57.1467 38.5515V33.4436Z" fill="#1C4973"/>
<path d="M57.1467 23.4436L30.1467 38.4436V45.4436L55.0392 32.0755C56.337 31.3785 57.1467 30.0246 57.1467 28.5515V23.4436Z" fill="#1C4973"/>
<path d="M0.146687 43.4436L27.1467 58.4436V65.4436L2.25418 52.0755C0.956375 51.3785 0.146687 50.0246 0.146687 48.5515V43.4436Z" fill="#379EE8"/>
<path d="M0.146687 33.4436L27.1467 48.4436V55.4436L2.25418 42.0755C0.956375 41.3785 0.146687 40.0246 0.146687 38.5515V33.4436Z" fill="#379EE8"/>
<path d="M0.146687 23.4436L27.1467 38.4436V45.4436L2.25418 32.0755C0.956375 31.3785 0.146687 30.0246 0.146687 28.5515V23.4436Z" fill="#379EE8"/>
<path d="M72.9735 40.2218V28.6218H68.9735V26.2218H79.6935V28.6218H75.5735V40.2218H72.9735ZM80.3072 40.2218L85.7672 26.2218H88.2072L93.6272 40.2218H90.9272L87.9272 32.2618C87.8605 32.1018 87.7672 31.8485 87.6472 31.5018C87.5405 31.1552 87.4205 30.7818 87.2872 30.3818C87.1539 29.9685 87.0339 29.5885 86.9272 29.2418C86.8205 28.8818 86.7405 28.6218 86.6872 28.4618L87.1872 28.4418C87.1072 28.7085 87.0139 29.0085 86.9072 29.3418C86.8005 29.6752 86.6872 30.0218 86.5672 30.3818C86.4472 30.7418 86.3272 31.0885 86.2072 31.4218C86.1005 31.7552 86.0005 32.0552 85.9072 32.3218L82.9072 40.2218H80.3072ZM82.7872 37.0218L83.6872 34.7618H90.0672L91.0272 37.0218H82.7872ZM100.872 40.4218C100.059 40.4218 99.3121 40.3218 98.6321 40.1218C97.9521 39.9085 97.3387 39.5952 96.7921 39.1818C96.2454 38.7685 95.7587 38.2685 95.3321 37.6818L97.0321 35.7618C97.6854 36.6685 98.3254 37.2952 98.9521 37.6418C99.5787 37.9885 100.285 38.1618 101.072 38.1618C101.525 38.1618 101.939 38.0952 102.312 37.9618C102.685 37.8152 102.979 37.6218 103.192 37.3818C103.405 37.1285 103.512 36.8418 103.512 36.5218C103.512 36.2952 103.465 36.0885 103.372 35.9018C103.292 35.7018 103.165 35.5285 102.992 35.3818C102.819 35.2218 102.605 35.0752 102.352 34.9418C102.099 34.8085 101.812 34.6952 101.492 34.6018C101.172 34.5085 100.819 34.4218 100.432 34.3418C99.6987 34.1952 99.0587 34.0018 98.5121 33.7618C97.9654 33.5085 97.5054 33.2018 97.1321 32.8418C96.7587 32.4685 96.4854 32.0552 96.3121 31.6018C96.1387 31.1352 96.0521 30.6085 96.0521 30.0218C96.0521 29.4352 96.1787 28.8952 96.4321 28.4018C96.6987 27.9085 97.0587 27.4818 97.5121 27.1218C97.9654 26.7618 98.4921 26.4818 99.0921 26.2818C99.6921 26.0818 100.339 25.9818 101.032 25.9818C101.819 25.9818 102.519 26.0752 103.132 26.2618C103.759 26.4485 104.305 26.7285 104.772 27.1018C105.252 27.4618 105.645 27.9018 105.952 28.4218L104.232 30.1218C103.965 29.7085 103.665 29.3685 103.332 29.1018C102.999 28.8218 102.639 28.6152 102.252 28.4818C101.865 28.3352 101.459 28.2618 101.032 28.2618C100.552 28.2618 100.132 28.3285 99.7721 28.4618C99.4254 28.5952 99.1521 28.7885 98.9521 29.0418C98.7521 29.2818 98.6521 29.5752 98.6521 29.9218C98.6521 30.1885 98.7121 30.4285 98.8321 30.6418C98.9521 30.8418 99.1187 31.0218 99.3321 31.1818C99.5587 31.3418 99.8454 31.4818 100.192 31.6018C100.539 31.7218 100.932 31.8285 101.372 31.9218C102.105 32.0685 102.765 32.2685 103.352 32.5218C103.939 32.7618 104.439 33.0552 104.852 33.4018C105.265 33.7352 105.579 34.1218 105.792 34.5618C106.005 34.9885 106.112 35.4685 106.112 36.0018C106.112 36.9218 105.892 37.7152 105.452 38.3818C105.025 39.0352 104.419 39.5418 103.632 39.9018C102.845 40.2485 101.925 40.4218 100.872 40.4218ZM111.631 36.0418L111.231 33.4618L118.431 26.2218H121.691L111.631 36.0418ZM109.571 40.2218V26.2218H112.171V40.2218H109.571ZM118.751 40.2218L113.451 33.1618L115.291 31.5818L121.911 40.2218H118.751Z" fill="#379EE8"/>
<path d="M124.859 40.2218V26.2218H127.459V40.2218H124.859ZM126.059 34.4818V32.1218H133.279V34.4818H126.059ZM126.059 28.6218V26.2218H134.139V28.6218H126.059ZM137.627 40.2218V26.2218H140.227V37.8218H146.687V40.2218H137.627ZM155.907 40.4218C154.907 40.4218 153.981 40.2418 153.127 39.8818C152.274 39.5218 151.527 39.0218 150.887 38.3818C150.261 37.7285 149.774 36.9618 149.427 36.0818C149.081 35.2018 148.907 34.2418 148.907 33.2018C148.907 32.1618 149.081 31.2018 149.427 30.3218C149.774 29.4418 150.261 28.6818 150.887 28.0418C151.527 27.3885 152.274 26.8818 153.127 26.5218C153.981 26.1618 154.907 25.9818 155.907 25.9818C156.921 25.9818 157.854 26.1618 158.707 26.5218C159.561 26.8818 160.301 27.3885 160.927 28.0418C161.554 28.6952 162.041 29.4618 162.387 30.3418C162.734 31.2085 162.907 32.1618 162.907 33.2018C162.907 34.2285 162.734 35.1818 162.387 36.0618C162.041 36.9418 161.554 37.7085 160.927 38.3618C160.301 39.0152 159.561 39.5218 158.707 39.8818C157.854 40.2418 156.921 40.4218 155.907 40.4218ZM155.907 37.9418C156.547 37.9418 157.127 37.8285 157.647 37.6018C158.181 37.3618 158.641 37.0285 159.027 36.6018C159.414 36.1618 159.714 35.6552 159.927 35.0818C160.154 34.5085 160.267 33.8818 160.267 33.2018C160.267 32.5218 160.154 31.8952 159.927 31.3218C159.714 30.7485 159.414 30.2485 159.027 29.8218C158.641 29.3818 158.181 29.0485 157.647 28.8218C157.127 28.5818 156.547 28.4618 155.907 28.4618C155.281 28.4618 154.701 28.5818 154.167 28.8218C153.634 29.0485 153.174 29.3752 152.787 29.8018C152.401 30.2285 152.101 30.7285 151.887 31.3018C151.674 31.8752 151.567 32.5085 151.567 33.2018C151.567 33.8818 151.674 34.5152 151.887 35.1018C152.101 35.6752 152.401 36.1752 152.787 36.6018C153.174 37.0285 153.634 37.3618 154.167 37.6018C154.701 37.8285 155.281 37.9418 155.907 37.9418ZM169.049 40.2218L164.689 26.2218H167.409L169.889 34.4818C169.969 34.7352 170.042 35.0152 170.109 35.3218C170.176 35.6285 170.236 35.9352 170.289 36.2418C170.342 36.5352 170.389 36.8085 170.429 37.0618C170.469 37.3152 170.509 37.5285 170.549 37.7018L170.009 37.6818C170.169 37.0552 170.296 36.5485 170.389 36.1618C170.482 35.7752 170.562 35.4552 170.629 35.2018C170.709 34.9352 170.789 34.6885 170.869 34.4618L173.229 28.4218H175.449L177.749 34.4618C177.882 34.8352 178.002 35.1952 178.109 35.5418C178.216 35.8752 178.302 36.2085 178.369 36.5418C178.449 36.8618 178.522 37.1952 178.589 37.5418L178.109 37.6418C178.162 37.3218 178.202 37.0618 178.229 36.8618C178.256 36.6618 178.282 36.4818 178.309 36.3218C178.336 36.1618 178.362 36.0085 178.389 35.8618C178.416 35.7018 178.456 35.5152 178.509 35.3018C178.576 35.0752 178.656 34.7885 178.749 34.4418L181.209 26.2218H183.909L179.529 40.2218H177.649L174.089 31.7018L174.329 31.7818L170.949 40.2218H169.049Z" fill="#1C4973"/>
</svg>
